<?xml version="1.0" encoding="utf-8"?>
<!-- Generator: Adobe Illustrator 25.4.1, SVG Export Plug-In . SVG Version: 6.00 Build 0)  -->
<svg version="1.1" id="Layer_1" xmlns="http://www.w3.org/2000/svg" xmlns:xlink="http://www.w3.org/1999/xlink" x="0px" y="0px"
	 viewBox="0 0 68.77 23" style="enable-background:new 0 0 68.77 23;" xml:space="preserve" width="68.77" height="23">
<style type="text/css">
	.st0{fill:#F78248;}
</style>
<path class="st0" d="M9.61,6.23v-4.3c0,0-0.28-3.7-2.67-0.85L0.75,9.4c0,0-0.78,0.75-0.75,2.1c-0.04,1.35,0.75,2.1,0.75,2.1
	l6.19,8.32c2.38,2.85,2.67-0.85,2.67-0.85v-4.3l-2.6-3.45c-0.92-1.07-0.89-1.82-0.89-1.82s-0.04-0.75,0.89-1.82L9.61,6.23z"/>
<path class="st0" d="M11.48,6.23v-4.3c0,0,0.28-3.7,2.67-0.85l6.19,8.32c0,0,0.78,0.75,0.75,2.1c0.04,1.35-0.75,2.1-0.75,2.1
	l-6.19,8.32c-2.38,2.85-2.67-0.85-2.67-0.85v-4.3l2.6-3.45c0.92-1.07,0.89-1.82,0.89-1.82s0.04-0.75-0.89-1.82L11.48,6.23z"/>
<polygon class="st0" points="36.21,6.77 36.21,3.21 28.78,3.21 25.22,3.21 25.22,6.77 25.22,9.9 25.22,13.46 25.22,19.79 
	28.78,19.79 28.78,13.46 35.79,13.46 35.79,9.9 28.78,9.9 28.78,6.77 "/>
<path class="st0" d="M51.23,8.2c0-0.03,0-0.06,0-0.08c0-0.01,0-0.03,0-0.04c0,0,0,0,0,0c-0.04-1.2-0.52-4.89-5.17-4.87h-3.62v0
	h-3.56v0v3.13v3.8v3.13v6.52h3.56v-6.52h3.62c4.65,0.02,5.14-3.68,5.17-4.87c0,0,0,0,0,0c0-0.01,0-0.03,0-0.04c0-0.02,0-0.05,0-0.08
	c0-0.01,0-0.02,0-0.04C51.23,8.23,51.23,8.22,51.23,8.2z M45.77,10.14h-3.33v-3.8h3.33c0,0.02,1.67-0.24,1.75,1.9
	C47.46,10.38,45.82,10.11,45.77,10.14z"/>
<polygon class="st0" points="68.77,19.79 62.63,11.34 68.52,3.21 64.02,3.21 60.37,8.23 56.73,3.21 52.22,3.21 58.11,11.34 
	51.98,19.79 56.52,19.79 60.37,14.46 64.23,19.79 "/>
</svg>
