<svg xmlns="http://www.w3.org/2000/svg" xmlns:xlink="http://www.w3.org/1999/xlink" viewBox="0 0 1613.56 285.41" width="430" height="76"><defs><style>.cls-1{isolation:isolate;}.cls-2{fill:url(#linear-gradient);}</style><linearGradient id="linear-gradient" x1="356.23" y1="729.7" x2="0" y2="729.7" gradientTransform="translate(0 -586.99)" gradientUnits="userSpaceOnUse"><stop offset="0" stop-color="#2596cf"/><stop offset="0.69" stop-color="#3dbca5"/></linearGradient></defs><title>Layer 1</title><g id="Layer_2" data-name="Layer 2"><g id="Layer_1-2" data-name="Layer 1"><g id="Layer_2-2" data-name="Layer 2"><g id="Layer_1-2-2" data-name="Layer 1-2"><g id="Black_Writing" data-name="Black Writing"><g id="Text"><g class="cls-1"><g class="cls-1"><path d="M516.25,141.85a116.36,116.36,0,0,1,12.94.62,47.16,47.16,0,0,1,9.09,1.85,18.09,18.09,0,0,1,5.9,3.05,13.1,13.1,0,0,1,3.38,4.14,15.4,15.4,0,0,1,1.56,5.2,52.57,52.57,0,0,1,.35,6.24,31.89,31.89,0,0,1-.59,6.25,15.91,15.91,0,0,1-2.13,5.34,15.72,15.72,0,0,1-4.15,4.33,24.6,24.6,0,0,1-6.68,3.23,51.42,51.42,0,0,1-9.76,2,112.72,112.72,0,0,1-13.34.69H500.6a120.37,120.37,0,0,1-12-.53,50.62,50.62,0,0,1-8.88-1.6,21.42,21.42,0,0,1-6.15-2.72,13.63,13.63,0,0,1-3.89-3.86,14.27,14.27,0,0,1-2-5.06,32,32,0,0,1-.58-6.28h9.17a15.45,15.45,0,0,0,1.24,6.84,7.93,7.93,0,0,0,4.1,3.71,23.38,23.38,0,0,0,7.52,1.55c3.1.21,6.95.31,11.53.31h12.22a94.17,94.17,0,0,0,13.31-.77,26.05,26.05,0,0,0,8.45-2.45,9.74,9.74,0,0,0,4.44-4.4,15.29,15.29,0,0,0,1.29-6.6,20.64,20.64,0,0,0-.88-6.49,7.59,7.59,0,0,0-3.49-4.14,19.94,19.94,0,0,0-7.32-2.18,93.34,93.34,0,0,0-12.37-.65h-12.6a143.63,143.63,0,0,1-14.39-.62,58.34,58.34,0,0,1-10-1.79,21.44,21.44,0,0,1-6.5-2.91,12.49,12.49,0,0,1-3.69-4,13.73,13.73,0,0,1-1.65-5,42.38,42.38,0,0,1-.38-5.94,30.93,30.93,0,0,1,.59-6.2,13.88,13.88,0,0,1,2.22-5.18,15.56,15.56,0,0,1,4.44-4.13,26.29,26.29,0,0,1,7.23-3,64.75,64.75,0,0,1,10.62-1.84q6.21-.62,14.61-.62h9.16q6.87,0,12,.5a49,49,0,0,1,8.88,1.58A22.78,22.78,0,0,1,543,113a13.21,13.21,0,0,1,3.91,3.82,14.27,14.27,0,0,1,2,5,31.63,31.63,0,0,1,.57,6.26h-9.16a15,15,0,0,0-1.24-6.73,7.87,7.87,0,0,0-4.11-3.66,23.46,23.46,0,0,0-7.54-1.52q-4.68-.32-11.55-.31h-9.16a144,144,0,0,0-15.08.64,32.15,32.15,0,0,0-9.36,2.17,9.38,9.38,0,0,0-4.77,4.11,13.9,13.9,0,0,0-1.34,6.44,24.54,24.54,0,0,0,.33,4.25,7.53,7.53,0,0,0,4.25,5.63,19.49,19.49,0,0,0,4.92,1.58,56.15,56.15,0,0,0,7.47.88q4.41.25,10.52.26Z"/><path d="M645.88,109.78H701a95.57,95.57,0,0,1,11.53.59,33.44,33.44,0,0,1,7.75,1.79,12.71,12.71,0,0,1,4.7,3,10.82,10.82,0,0,1,2.41,4.16,20.13,20.13,0,0,1,.89,5.34q.12,3,.12,6.54t-.17,6.87a19.63,19.63,0,0,1-1.1,5.71,11.66,11.66,0,0,1-3,4.48,15.69,15.69,0,0,1-5.77,3.23,46.57,46.57,0,0,1-9.5,2,124.6,124.6,0,0,1-14.15.67H655v29h-9.16ZM655,146.43h39.67q6.1,0,10.28-.21a45.54,45.54,0,0,0,6.9-.79,11.36,11.36,0,0,0,4.2-1.62,6.07,6.07,0,0,0,2.17-2.77,12.82,12.82,0,0,0,.81-4.13c.08-1.61.12-3.52.12-5.75,0-2.07,0-3.85-.12-5.35a10.57,10.57,0,0,0-.81-3.77,5.42,5.42,0,0,0-2.17-2.43,12.81,12.81,0,0,0-4.2-1.41,48.13,48.13,0,0,0-6.9-.64q-4.17-.15-10.28-.15H655Z"/><path d="M821.71,183.09V109.78H895v7.63H830.87v24.44H892v7.64h-61.1v26H895v7.64Z"/><path d="M988.37,183.09V109.78h73.31v7.63H997.54v24.44h61.09v7.64H997.54v26h64.14v7.64Z"/><path d="M1155,183.09V109.78H1210a85.33,85.33,0,0,1,14.15,1,31.19,31.19,0,0,1,9.5,3,15.87,15.87,0,0,1,5.78,5,20.84,20.84,0,0,1,3,7.09,48.68,48.68,0,0,1,1.09,9.21c.12,3.42.17,7.22.17,11.38s0,8-.17,11.39a48.68,48.68,0,0,1-1.09,9.21,20.92,20.92,0,0,1-3,7.09,15.87,15.87,0,0,1-5.78,5,31.47,31.47,0,0,1-9.5,3,86.44,86.44,0,0,1-14.15,1Zm54.94-7.64q6.06,0,10.26-.33a25.71,25.71,0,0,0,6.92-1.36,9.08,9.08,0,0,0,4.2-3,13.15,13.15,0,0,0,2.18-5.18,44,44,0,0,0,.81-7.93q.12-4.69.12-11.24c0-4.36,0-8.1-.12-11.24a44,44,0,0,0-.81-7.92,13.15,13.15,0,0,0-2.18-5.18,9.08,9.08,0,0,0-4.2-3,25.24,25.24,0,0,0-6.89-1.36c-2.79-.22-6.22-.34-10.29-.34H1164.2v58Z"/><path d="M1398.11,108.25a81.84,81.84,0,0,1,14.16,1,30.25,30.25,0,0,1,9.47,3.1,15.57,15.57,0,0,1,5.73,5.23,22.81,22.81,0,0,1,2.93,7.39,52.74,52.74,0,0,1,1.1,9.6c.11,3.56.17,7.51.17,11.83s-.06,8.28-.17,11.84a52.62,52.62,0,0,1-1.1,9.59,22.78,22.78,0,0,1-2.93,7.4,15.74,15.74,0,0,1-5.73,5.23,30.51,30.51,0,0,1-9.47,3.1,82.85,82.85,0,0,1-14.16,1h-27.58a82.85,82.85,0,0,1-14.16-1,30.51,30.51,0,0,1-9.47-3.1,15.89,15.89,0,0,1-5.75-5.23,22.37,22.37,0,0,1-3-7.4,51.05,51.05,0,0,1-1.07-9.59q-.15-5.34-.15-11.84c0-4.32,0-8.27.15-11.83a51.16,51.16,0,0,1,1.07-9.6,22.4,22.4,0,0,1,3-7.39,15.71,15.71,0,0,1,5.75-5.23,30.25,30.25,0,0,1,9.47-3.1,81.84,81.84,0,0,1,14.16-1Zm0,68.73c4,0,7.46-.12,10.24-.36a24.26,24.26,0,0,0,6.9-1.45,9.4,9.4,0,0,0,4.2-3.15,13.88,13.88,0,0,0,2.15-5.44,51,51,0,0,0,.78-8.33c.08-3.3.12-7.23.12-11.82s0-8.52-.12-11.81a51,51,0,0,0-.78-8.33,13.82,13.82,0,0,0-2.15-5.44,9.32,9.32,0,0,0-4.18-3.15,23.69,23.69,0,0,0-6.87-1.45c-2.79-.24-6.21-.36-10.29-.36h-27.58q-6.12,0-10.29.36a24.07,24.07,0,0,0-6.9,1.45,9.33,9.33,0,0,0-4.2,3.15,13.82,13.82,0,0,0-2.14,5.44,49,49,0,0,0-.77,8.33q-.09,4.94-.09,11.81c0,4.59,0,8.52.12,11.82a49.93,49.93,0,0,0,.78,8.33,14.19,14.19,0,0,0,2.13,5.44,9.2,9.2,0,0,0,4.17,3.15,24.41,24.41,0,0,0,6.9,1.45q4.17.36,10.29.36Z"/><path d="M1604.39,132.69a26.73,26.73,0,0,0-1.24-9.07,9.59,9.59,0,0,0-4.1-5.06,18.18,18.18,0,0,0-7.52-2.2q-4.65-.47-11.53-.47h-21.43q-6.1,0-10.28.36a23.92,23.92,0,0,0-6.9,1.45,9.33,9.33,0,0,0-4.2,3.15,13.82,13.82,0,0,0-2.15,5.44,49.11,49.11,0,0,0-.76,8.33q-.1,4.94-.1,11.81c0,4.59,0,8.52.12,11.82a49.82,49.82,0,0,0,.79,8.33,14.19,14.19,0,0,0,2.12,5.44,9.23,9.23,0,0,0,4.18,3.15,24.26,24.26,0,0,0,6.9,1.45q4.17.36,10.28.36H1580q5.36,0,9.22-.29a33.83,33.83,0,0,0,6.58-1.05,11.9,11.9,0,0,0,4.39-2.1,9,9,0,0,0,2.6-3.36,16.17,16.17,0,0,0,1.27-4.87,58.46,58.46,0,0,0,.33-6.66h9.17a54.56,54.56,0,0,1-.57,8.28,22.23,22.23,0,0,1-2,6.59,16.07,16.07,0,0,1-3.89,5,19.83,19.83,0,0,1-6.16,3.46,40.6,40.6,0,0,1-8.88,2,98,98,0,0,1-12,.65h-21.43a82.72,82.72,0,0,1-14.15-1,30.51,30.51,0,0,1-9.47-3.1,15.81,15.81,0,0,1-5.75-5.23,22.16,22.16,0,0,1-3-7.4,51.85,51.85,0,0,1-1.08-9.59q-.14-5.34-.14-11.84c0-4.32,0-8.27.14-11.83a52,52,0,0,1,1.08-9.6,22.19,22.19,0,0,1,3-7.39,15.63,15.63,0,0,1,5.75-5.23,30.25,30.25,0,0,1,9.47-3.1,81.72,81.72,0,0,1,14.15-1H1580a98.12,98.12,0,0,1,12,.64,43.21,43.21,0,0,1,8.88,2,20.28,20.28,0,0,1,6.16,3.32,15.61,15.61,0,0,1,3.89,4.72,20.2,20.2,0,0,1,2,6.16,46.91,46.91,0,0,1,.57,7.64Z"/></g></g></g><g id="Symbol"><path class="cls-2" d="M282.2.38c3.82,0,5.73,3.06,4.2,7.26l-37.06,94H350.2c4.59,0,6.88,2.67,5.73,6.11l-29,73.36c-1.53,3.44-6.12,6.49-10.7,6.49H215.33L179.8,278.15c-1.53,3.82-6.11,7.26-9.93,7.26H86.2c-3.82,0-5.73-3.06-4.21-7.26l35.54-90.55H4.44c-3.82,0-5-1.53-4.21-3.44,1.15-2.29,4.21-3,8.79-3.82,39-5,77.94-10.31,116.91-15.28h0c-32.09-5-64.18-9.93-96.28-15.28-7.26-1.15-14.9-2.29-13.37-6.11,1.15-3.44,8.41-4.21,16.81-5.74,36.68-5.73,73.36-11.08,110-16.42h0c-34.76-4.59-69.15-8.79-103.92-13.38-7.26-1.14-7.64-3.44-6.87-5s3-2.3,6.87-2.3h112l37-93.57C189.74,3.44,194.32,0,198.14,0Z"/></g></g></g></g></g></g></svg>